<svg xmlns="http://www.w3.org/2000/svg" width="72.999" height="79.999" viewBox="0 0 72.999 79.999"><defs><style>.a{fill:#fff;}</style></defs><path class="a" d="M37.521,68.574c-4.488,5.02-10.3,10.029-17.044,10.844l-.007-.03C13.835,82.167,1.02,75.272,1.02,62.763c0-8.278,10.628-26.608,21.877-50.26C25.863,6.356,28.931,0,37.488,0c8.62,0,11.555,6.073,15.166,13.56C74.019,56.154,74.019,58.5,74.019,62.763c0,14.64-18.127,26.362-36.5,5.811Zm31.514-5.811c0-6.522-21.206-47.754-21.382-48.1-3.068-6.359-4.913-9.68-10.1-9.68-6.133,0-7.722,4.893-10.688,10.764C6.006,57.334,6.006,59.611,6.006,62.763c0,9.953,12.243,20.129,28.21,2.021-6.629-8.563-9.993-15.92-9.993-21.867,0-9.1,6.689-13.862,13.3-13.862s13.3,4.76,13.3,13.862c0,5.947-3.361,13.3-9.993,21.867,15.3,17.35,28.21,8.5,28.21-2.021ZM37.521,34.041c-4.135,0-8.311,2.746-8.311,8.876,0,4.571,2.869,10.774,8.311,17.978,5.442-7.2,8.311-13.407,8.311-17.978C45.832,36.787,41.656,34.041,37.521,34.041Z" transform="translate(-1.02)"/></svg>