<svg xmlns="http://www.w3.org/2000/svg" width="80.004" height="80.095" viewBox="0 0 80.004 80.095"><defs><style>.a{fill:#fff;}</style></defs><path class="a" d="M54.569,77.312c.067-.02.13-.047.2-.07C95.525,61.049,84.25,0,40.041,0A40.1,40.1,0,0,0,0,40.041C0,67.826,28.142,87.653,54.569,77.312ZM17.621,66.932c2.843-4.778,12.042-18.259,27.745-22.91a84.332,84.332,0,0,1,5.813,29.213,34.814,34.814,0,0,1-33.558-6.3ZM56.1,71.146A89.841,89.841,0,0,0,50.4,42.894c6.947-1.084,14.989-.36,24.108,3.293A35.115,35.115,0,0,1,56.1,71.146ZM75.027,41.012c-10.044-3.774-18.9-4.244-26.557-2.783-1.185-2.669-2.429-5.235-3.747-7.6,11.755-4.695,18.7-10.417,21.812-13.447A34.586,34.586,0,0,1,75.027,41.012ZM62.981,13.621c-2.83,2.693-9.493,8.132-20.888,12.58A93.636,93.636,0,0,0,26.751,7.641,34.829,34.829,0,0,1,62.981,13.621ZM21.966,10.087A88.083,88.083,0,0,1,37.141,27.962a110.169,110.169,0,0,1-31.4,4.918,35.1,35.1,0,0,1,16.22-22.793ZM5.112,37.905a115.22,115.22,0,0,0,34.732-5.5c1.255,2.2,2.446,4.595,3.59,7.084-15.8,5.032-25.673,18.022-29.454,23.888A34.58,34.58,0,0,1,5.112,37.905Z"/></svg>