<svg xmlns="http://www.w3.org/2000/svg" width="50" height="50" viewBox="0 0 50 50"><defs><style>.a{fill:#fff;}</style></defs><path class="a" d="M25,0A25,25,0,1,0,50,25,25.074,25.074,0,0,0,25,0Zm0,45.86A20.859,20.859,0,1,1,45.86,25,20.906,20.906,0,0,1,25,45.86Z"/><circle class="a" cx="3.125" cy="3.125" r="3.125" transform="translate(12.5 14.609)"/><circle class="a" cx="3.125" cy="3.125" r="3.125" transform="translate(31.25 14.609)"/><path class="a" d="M38.985,34.7H17.266A3.209,3.209,0,0,0,15,35.716a2.652,2.652,0,0,0-.625,2.5,13.9,13.9,0,0,0,13.75,11.25,14.058,14.058,0,0,0,13.75-11.25,2.8,2.8,0,0,0-.625-2.5A3.355,3.355,0,0,0,38.985,34.7ZM28.125,45.325a9.735,9.735,0,0,1-9.141-6.484H37.5A9.944,9.944,0,0,1,28.125,45.325Z" transform="translate(-3.125 -7.59)"/></svg>