<svg xmlns="http://www.w3.org/2000/svg" width="50.005" height="54.675" viewBox="0 0 50.005 54.675"><defs><style>.a{fill:#fff;}</style></defs><path class="a" d="M49.97,11.368H43.818a6.832,6.832,0,0,0,1.624-2.051c.427-1.367.684-3.674-2.307-6.58s-5.9-2.991-7.52-2.478c-3.674.94-6.409,5.042-7.776,8.2C26.214,5.3,23.736,1.2,20.062.259c-1.795-.427-4.529-.427-7.52,2.478-2.991,2.735-2.991,5.042-2.478,6.58a11.361,11.361,0,0,0,1.624,2.051H5.535A2.941,2.941,0,0,0,2.8,14.1V24.357a3.028,3.028,0,0,0,2.991,2.991H7.414V51.958a2.941,2.941,0,0,0,2.735,2.735H45.441a2.752,2.752,0,0,0,2.735-2.735V27.348H49.8a3.028,3.028,0,0,0,2.991-2.991V14.1A2.717,2.717,0,0,0,49.97,11.368ZM36.725,4.532h.427A4.983,4.983,0,0,1,39.887,5.9,4.035,4.035,0,0,1,41,7.522c-.256.94-4.358,2.307-9.314,2.991C33.136,7.95,34.93,5.215,36.725,4.532ZM15.533,6.155a4.983,4.983,0,0,1,2.735-1.367h.427c1.795.427,3.674,3.162,4.785,5.9C18.438,10,14.336,8.89,14.165,7.693A19.346,19.346,0,0,0,15.533,6.155Zm-8.2,9.827h18.2v6.836H7.329Zm4.529,11.365H25.531V50.164H11.858Zm31.96,22.816H30.145V27.348H43.818Zm4.529-27.345h-18.2V15.982h18.2Z" transform="translate(-2.8 -0.018)"/></svg>