<svg xmlns="http://www.w3.org/2000/svg" width="80" height="80" viewBox="0 0 80 80"><defs><style>.a{fill:#fff;}.b{fill:#52de97;}</style></defs><circle class="a" cx="40" cy="40" r="40"/><path class="b" d="M50.466,47.91a2.764,2.764,0,0,0-2.7,3.226,2.809,2.809,0,0,0,2.79,2.18h4.185l2.441-.349c-3.923,5.754-10.636,8.369-18.046,7.149A17.217,17.217,0,0,1,25.794,49.392C20.825,36.49,30.24,24.11,42.533,24.11c6.364,0,12.031,3.749,15.257,8.282v.087a2.683,2.683,0,0,0,3.749.7,2.725,2.725,0,0,0,.785-3.574,23.461,23.461,0,0,0-21.447-10.81A24.019,24.019,0,0,0,18.994,41.11,23.366,23.366,0,0,0,42.533,65.87a23.008,23.008,0,0,0,17.7-8.108l-.523,2.877v2.615a2.809,2.809,0,0,0,2.18,2.79,2.72,2.72,0,0,0,3.226-2.7V47.91Z" transform="translate(-2.43 -2.402)"/></svg>