<svg xmlns="http://www.w3.org/2000/svg" width="50.001" height="45.436" viewBox="0 0 50.001 45.436"><defs><style>.a{fill:#fff;}</style></defs><path class="a" d="M24.815,48.336a4.1,4.1,0,0,1-3.357-1.483L4.283,28.428A15.949,15.949,0,0,1,1.551,10.551,13.711,13.711,0,0,1,13.808,2.9,13.944,13.944,0,0,1,23.8,7.272l1.015,1.015L25.83,7.272A13.558,13.558,0,0,1,35.823,2.9h0a13.558,13.558,0,0,1,9.993,4.372,14.439,14.439,0,0,1,4.138,10.383,15.664,15.664,0,0,1-3.9,10.383L29.031,46.228a6.838,6.838,0,0,1-1.874,1.483,5.258,5.258,0,0,1-2.342.625Zm-.156-4.372.234.234c.234,0,.39-.312.546-.546l17.253-18.58a11.269,11.269,0,0,0,2.889-7.495,10.566,10.566,0,0,0-2.889-7.495A9.2,9.2,0,0,0,35.667,6.96h0a9.088,9.088,0,0,0-7.026,3.123l-3.9,4.138-3.9-4.138a9.769,9.769,0,0,0-6.87-2.889,10.151,10.151,0,0,0-8.9,5.465A11.769,11.769,0,0,0,7.25,25.7Z" transform="translate(0.048 -2.9)"/></svg>