<svg id="CHAIR" xmlns="http://www.w3.org/2000/svg" viewBox="0 0 967.79 1080"><defs><style>.cls-1,.cls-6{fill:none;}.cls-1,.cls-10,.cls-4,.cls-5,.cls-6,.cls-7{stroke:#2e293c;}.cls-1,.cls-10,.cls-4,.cls-5,.cls-6,.cls-7,.cls-8{stroke-miterlimit:10;stroke-width:2px;}.cls-2,.cls-4,.cls-7,.cls-8{fill:#fff;}.cls-3,.cls-5{fill:#ccc;}.cls-6,.cls-7,.cls-8{stroke-linecap:round;}.cls-8{stroke:#000;}.cls-9{fill:#f5f6fa;opacity:0.5;}.cls-10{fill:#2e293c;}.cls-11{fill:#52de97;}.cls-12{fill:#97ebc1;}</style></defs><path class="cls-1" d="M640,635.58h0c-1.32,2.19-.54,5.42,1.74,7.86l13.53,14.47c2.51,2.69,7.28,4,10.05,2.5l5.36-2.8c3.38-1.77,3.16-5.81-.87-8.51l-21-14.06C645.4,632.71,641.55,633,640,635.58Z"/><path class="cls-1" d="M641,635.06s-9.4-6.11-24.4-9.11c-22.89-4.58-99-17-99-17"/><path class="cls-2" d="M476.83,893H490.3a8.94,8.94,0,0,1,1.37.11h-6.59a8.87,8.87,0,0,0-8.87,8.87v8.27a8.86,8.86,0,0,0,7.5,8.75h-6.88a8.87,8.87,0,0,1-8.87-8.87v-8.27A8.86,8.86,0,0,1,476.83,893Z"/><path class="cls-3" d="M476.21,910.2v-8.27a8.87,8.87,0,0,1,8.87-8.87h6.59a8.86,8.86,0,0,1,7.49,8.75v8.27A8.87,8.87,0,0,1,490.3,919h-6.59A8.86,8.86,0,0,1,476.21,910.2Z"/><rect class="cls-1" x="467.96" y="892.95" width="31.2" height="26" rx="8.86" transform="translate(967.12 1811.89) rotate(-180)"/><line class="cls-4" x1="492.83" y1="893.32" x2="492.83" y2="918.81"/><line class="cls-4" x1="474.83" y1="893.32" x2="474.83" y2="918.81"/><rect class="cls-5" x="675.96" y="832.95" width="31.2" height="26" rx="8.86" transform="translate(1383.12 1691.89) rotate(-180)"/><line class="cls-5" x1="700.83" y1="833.32" x2="700.83" y2="858.81"/><line class="cls-5" x1="682.83" y1="833.32" x2="682.83" y2="858.81"/><rect class="cls-4" x="257.96" y="832.95" width="31.2" height="26" rx="8.86" transform="translate(547.12 1691.89) rotate(-180)"/><line class="cls-4" x1="282.83" y1="833.32" x2="282.83" y2="858.81"/><line class="cls-4" x1="264.83" y1="833.32" x2="264.83" y2="858.81"/><path class="cls-2" d="M477.56,799.29l4.89,82.19a12,12,0,0,0,2.46,6.35A11.81,11.81,0,0,1,471.45,877l-4.89-82.19a13.35,13.35,0,0,0-3.35-7.87A13.46,13.46,0,0,1,477.56,799.29Z"/><path class="cls-2" d="M270.7,816.79,448.31,750h70l177.61,66.84a5.12,5.12,0,0,1,1.57.94L529.32,754.45h-70L281.71,821.29a5,5,0,0,0-3.18,3.87l-4.85,1.2a5,5,0,0,1-3-9.57Z"/><path class="cls-3" d="M281.71,821.29l177.61-66.84h70l168.17,63.28a5,5,0,0,1-4.54,8.63l-176.21-43.6a13.47,13.47,0,0,0-16.67,12L495.18,877a11.9,11.9,0,0,1-10.27,10.85,12,12,0,0,1-2.46-6.35l-4.89-82.19a13.46,13.46,0,0,0-14.35-12.37,13.44,13.44,0,0,0-13.32-4.16l-171.36,42.4A5,5,0,0,1,281.71,821.29Z"/><path class="cls-1" d="M518.31,750l177.61,66.84a5,5,0,0,1,1.32,8.66h0a5,5,0,0,1-4.29.91l-176.21-43.6a13.47,13.47,0,0,0-16.67,12L495.18,877a11.91,11.91,0,0,1-11.87,11h0a11.9,11.9,0,0,1-11.86-11l-4.89-82.19a13.47,13.47,0,0,0-16.67-12l-176.21,43.6a5,5,0,0,1-4.29-.91h0a5,5,0,0,1,1.31-8.66L448.31,750"/><path class="cls-2" d="M453.29,732.57l4.27-3.62,26.06,2-2.12,3.52c-2.52,2.14-17,7.18-17,10.49l.63,32.48a3.43,3.43,0,0,0,.39,1.29c-16.24-2.66-16.24-8.77-16.24-8.77V741.16A11.27,11.27,0,0,1,453.29,732.57Z"/><path class="cls-3" d="M464.62,750c0-7.31,14.36-13.35,16.88-15.49l2.12-3.52,25.94-2,4,3.64a11.28,11.28,0,0,1,3.71,8.36v29s0,10-34,10a110.14,110.14,0,0,1-17.76-1.23,3.43,3.43,0,0,1-.39-1.29Z"/><path class="cls-1" d="M457.56,729l-4.27,3.62a11.27,11.27,0,0,0-4,8.59V770s0,10,34,10,34-10,34-10V741a11.28,11.28,0,0,0-3.71-8.36l-4-3.64"/><polyline class="cls-5" points="494.32 601.95 494.32 658.95 472.31 658.95 472.31 601.95 494.32 601.95 494.32 601.95"/><path class="cls-2" d="M467.22,655.16a59.68,59.68,0,0,1,32.18,0l.07,0a49.11,49.11,0,0,0-14.75,2.29,15,15,0,0,0-9.91,14.38V736a7.79,7.79,0,0,0,1.53,4.63,53.82,53.82,0,0,1-14.46-3.41,7.27,7.27,0,0,1-4.57-6.77V669A14.46,14.46,0,0,1,467.22,655.16Z"/><path class="cls-3" d="M474.81,671.86a15,15,0,0,1,9.91-14.38,49.11,49.11,0,0,1,14.75-2.29A14.43,14.43,0,0,1,509.31,669v61.72a7.31,7.31,0,0,1-4.52,6.75c-4,1.65-10.87,3.53-21.48,3.53a65.5,65.5,0,0,1-7-.36,7.79,7.79,0,0,1-1.53-4.63Z"/><path class="cls-1" d="M509.31,730.67V669a14.44,14.44,0,0,0-9.91-13.79,59.68,59.68,0,0,0-32.18,0A14.46,14.46,0,0,0,457.31,669v61.46a7.27,7.27,0,0,0,4.57,6.77A57.71,57.71,0,0,0,483.31,741c10.61,0,17.48-1.88,21.48-3.53A7.31,7.31,0,0,0,509.31,730.67Z"/><path class="cls-5" d="M500.81,644.78V659s-6,2-17,2a71.94,71.94,0,0,1-18-2V644.78a9.83,9.83,0,0,1,9.83-9.83H491A9.83,9.83,0,0,1,500.81,644.78Z"/><path class="cls-6" d="M509.31,740s-9,5-26,5-26-5-26-5"/><path class="cls-2" d="M483.31,750a8.49,8.49,0,0,1,8.38,7.13,8.6,8.6,0,0,0-2.84-.5,8.51,8.51,0,0,0-8.5,8.5v99a8.83,8.83,0,0,0,.12,1.37,8.51,8.51,0,0,1-5.66-8v-99A8.5,8.5,0,0,1,483.31,750Z"/><path class="cls-3" d="M480.35,834V765.08a8.51,8.51,0,0,1,8.5-8.5,8.6,8.6,0,0,1,2.84.5,7.76,7.76,0,0,1,.12,1.37v99a8.5,8.5,0,0,1-8.5,8.5,8.6,8.6,0,0,1-2.84-.5,8.83,8.83,0,0,1-.12-1.37Z"/><path class="cls-6" d="M474.81,827.39v30.06a8.5,8.5,0,0,0,17,0v-99a8.5,8.5,0,0,0-17,0V809"/><path class="cls-6" d="M504.31,663s-5,3-21,3-21-3-21-3"/><line class="cls-7" x1="581.27" y1="787.43" x2="517.56" y2="769.95"/><line class="cls-7" x1="619.56" y1="797.95" x2="595.85" y2="791.44"/><line class="cls-8" x1="449.56" y1="769.95" x2="395.56" y2="783.95"/><path class="cls-4" d="M327.41,462c2.69,21.65,3.39,43.46,3.39,43.46L362.47,503s-2.37-21.28-6.7-42.95Z"/><path class="cls-4" d="M245.19,403.52c15.69-3.61,44.28-9,60.25-9,19.51,0,62.51,3.62,76.65,4.74,3.49.27,6.09,2.78,6,5.77h0c-.1,3.1-3.06,5.62-6.7,5.72-4.36.11-10.53.21-17.57.3a4.22,4.22,0,0,0-2.92,1.22h0a20.75,20.75,0,0,0-6.26,16.45v.12l5.19,54a2.22,2.22,0,0,1-2,2.4L331,487.37l-3.43-41.89a27.33,27.33,0,0,0-2.73-10.06s-8.05-23.09-17.9-23.09c-16.55,0-41.08,4.51-56.6,7.7-4.06.83-8.33,0-10.73-3.06C235.75,412,238.66,405,245.19,403.52Z"/><path class="cls-4" d="M311.31,412.06a5,5,0,0,1,4,1.67,53.83,53.83,0,0,1,12.81,31.83c2.55,38,3.41,41.71,3.41,41.71h0a3.87,3.87,0,0,1-3.89-3.59s-.8.06-3.19-36a56.84,56.84,0,0,0-16-35.52Z"/><path class="cls-3" d="M701.21,303,607.7,392.4A126.87,126.87,0,0,0,569.49,500L577,559.32l-56.78-12.44,9.73-59.26a137.57,137.57,0,0,0-18.19-93.77l-49.42-81.3,1-13.89,57,83.06a46.65,46.65,0,0,0,69.32,8.62L706,286.78Z"/><path class="cls-1" d="M441.52,294.38c.63-5.6,1.24-11.08,1.83-16.31,9.27-68.27,34.93-94.11,74.87-105.25a195.47,195.47,0,0,1,24.43-5c43.76-6.33,90.52-9.84,134.45-3.28,19.62,2.93,39,16,48.81,33.65,22.46,40.44,1.28,91.25-11.8,131.52l-23,70.88c-6.85,21.09-12.2,42.45-29.67,57.21-19.77,16.88-46.25,19.66-71,18.8-26.27-.92-52.39-4-78.54-6.48-21.54-2.06-46.29-1.66-63-18.17-14.4-14.27-17.4-36.83-16.07-57.33C435,361.09,438.5,327.85,441.52,294.38Z"/><path class="cls-9" d="M451.31,316.45c.51-4.52,1-8.94,1.5-13.15,7.74-54.91,31-75.2,67.29-83.31a195.64,195.64,0,0,1,22-3.45c39.19-4.1,80.67-5.87,119.37.19,17.16,2.7,34.21,13.3,43,27.23,20,31.86,2.47,71.25-8.26,102.68l-19,55.63c-5.68,16.63-10.07,33.5-25.21,45.27C634.77,461,611.29,463.46,589.16,463c-23.61-.53-47.27-2.79-71.08-4.61-19.72-1.51-42.48-1-58.08-14.29-13.51-11.51-16.56-29.82-15.57-46.46C446.06,370.39,448.9,343.49,451.31,316.45Z"/><path class="cls-10" d="M669.06,563.45c.81-25-11-30-44-36s-69-6-102-13-62-12-103-15-102,0-138,8-49,30-50,50,19,27,32,33c0,0,134,35,190,35s106-18,149-22S668.06,594.45,669.06,563.45Z"/><path class="cls-11" d="M345.56,524.44c6.2,0,11.72,1,14.42,2.56a2.22,2.22,0,0,0,1,.31l87.85,5.12a.7.7,0,0,0,.36-1.32l-12.62-6.5a2.22,2.22,0,0,0-1.13-.24c-1,0-1.91.07-2.85.07-6.13,0-16.5-1.15-16.5-5.5s10.37-5.5,16.5-5.5,16.5,1.16,16.5,5.5a2.8,2.8,0,0,1-.75,1.89,2.24,2.24,0,0,0,.68,3.45l13.51,7a2.22,2.22,0,0,0,1.1.25c.64,0,1.3,0,2,0,6,0,11.3.91,14.09,2.38a2.35,2.35,0,0,0,1.09.3l56.29.66a2.42,2.42,0,0,0,1-.22c2.9-1.31,8-2.12,13.54-2.12,6.13,0,16.5,1.16,16.5,5.5s-10.37,5.5-16.5,5.5-11.29-.9-14.09-2.37a2.32,2.32,0,0,0-1.09-.3l-56.28-.65a2.18,2.18,0,0,0-1,.22,25.83,25.83,0,0,1-7,1.71,2.22,2.22,0,0,0-1.95,2.68v0a2.24,2.24,0,0,0,2.05,1.8c4.36.3,12.82,1.4,12.82,5.37,0,4.35-10.37,5.5-16.5,5.5s-16.5-1.15-16.5-5.5c0-3.26,5.67-4.57,10-5.1a2.26,2.26,0,0,0,1.93-2.68v0a2.25,2.25,0,0,0-2.05-1.8c-4.82-.32-9.79-1.3-11.83-3.25a2.33,2.33,0,0,0-1.43-.64l-88.75-5.17a2.37,2.37,0,0,0-1,.19c-2.95,1.26-7.83,2-13.28,2-6.13,0-16.5-1.15-16.5-5.5S339.43,524.44,345.56,524.44Z"/><ellipse class="cls-12" cx="432.56" cy="518.95" rx="12.3" ry="3.28"/><ellipse class="cls-12" cx="465.81" cy="536.95" rx="12.3" ry="3.28"/><ellipse class="cls-12" cx="468.56" cy="551.95" rx="12.3" ry="3.28"/><ellipse class="cls-12" cx="551.56" cy="537.95" rx="12.3" ry="3.28"/><ellipse class="cls-12" cx="345.56" cy="529.95" rx="12.3" ry="3.28"/><path class="cls-4" d="M624.56,536c.65,8.69,2.77,26.1,3,31,1,21-1.25,29.25-7,35-18,2-45.42,5.56-45.42,5.56S606.56,615,628.56,613c20-1.82,33-4,28-59-.44-4.87-1.42-20.51-2-25"/><path class="cls-4" d="M620.56,602a38.71,38.71,0,0,1-24,9"/><path class="cls-4" d="M662.93,446.35l-2.42,2.44a24.74,24.74,0,0,0-7.42,19v.13L658,533.74a2.67,2.67,0,0,1-2.35,2.8L625.07,540,622,487.85a30.1,30.1,0,0,0-2.93-11.35l-12.94-26.66Z"/><path class="cls-4" d="M606.1,450.33S621,463.47,622,488.05c2.19,52.05,3.06,51.94,3.06,51.94h0a4.16,4.16,0,0,1-4.37-4s-.84-4.45-2.91-45.41a61.21,61.21,0,0,0-17.51-39.85Z"/><path class="cls-4" d="M522.49,458.74c2.67,3.42,7.51,4.17,12.15,3.07,17.7-4.22,45.68-9.28,64.49-10.93,21.72-1.91,66.72-3.52,84.7-4.6,4.14-.25,7.55-3.24,7.72-6.77h0c.16-3.41-2.76-6.16-6.72-6.35-16.06-.73-64.89-3.22-87.06-2.47-18.16.61-50.76,7.8-68.67,12.51-7.45,2-10.88,10.06-6.61,15.54Z"/></svg>