<svg xmlns="http://www.w3.org/2000/svg" viewBox="0 0 778.21 863.84"><defs><style>.cls-1,.cls-2{fill:#fff;}.cls-1{stroke:#2e293c;}.cls-1,.cls-2,.cls-3{stroke-miterlimit:10;stroke-width:2px;}.cls-2{stroke:#fff;}.cls-3{fill:none;stroke:#ccc;}.cls-4{fill:#f5f6fa;}.cls-5{fill:#ccc;}.cls-6{fill:#2e293c;}.cls-7{fill:#52de97;}</style></defs><g id="DEVICE"><path class="cls-1" d="M192.82,361.49l141.59-61.16c31.63-15.06,76.4-15.22,104.54-.16L593,375.27c18.51,9.49,39.06,30.11,38.89,51.82-.16,21.89-20,37.59-37.09,49.55q-34.29,23.94-67.75,47.88l-42.43,30.34c-34.11,24.38-97.59,26.8-135.06,5.57L184.26,466.75c-18.78-10.64-42.93-33-37.07-57.52C152.21,388.24,173.66,369.77,192.82,361.49Z"/><path class="cls-2" d="M192.85,431.76l163.39,88.66c37.62,20.41,100.45,17.05,132.87-7.27L596.8,432.41c22.41-16.8,18.48-39.52-8.85-53.1l-152-75.5c-25.68-12.75-66.1-12.93-94.76-.5L204.4,362.63C163.56,380.34,157.87,412.78,192.85,431.76Z"/><path class="cls-3" d="M179.49,452.19,349,547.9c38.43,21.71,103.55,19.06,138.56-6.07l121.3-87.08"/><path class="cls-4" d="M409.74,520.31c-19.07,0-36.88-4.09-50.14-11.51l-27.79-15.56c.57-.34,1.11-.69,1.61-1l88.78-61.63c5.48-3.81,8.36-8.56,8.1-13.38s-3.69-9.37-9.67-12.64l-20.25-11.08c-5.81-3.18-13.56-4.94-21.82-4.94a52.47,52.47,0,0,0-22.81,4.94L250.84,445.43c-.77.38-1.53.79-2.26,1.23l-27.06-15.15c-13.42-7.52-20.61-17.74-20.22-28.78.43-12.58,10.65-24.51,28-32.72L348,314c12.29-5.8,27.54-9,42.93-9s30,3.23,40.84,9.08L563.28,384.9c11.26,6.07,17.8,14.32,18.41,23.23.6,8.62-4.44,17.29-14.18,24.41l-96.65,70.63C456,514.06,433.68,520.31,409.74,520.31Z"/><path class="cls-5" d="M390.92,305.48c15.38,0,29.8,3.2,40.59,9L563,385.34c11.11,6,17.56,14.09,18.16,22.83.58,8.44-4.39,16.95-14,24l-96.65,70.63c-14.83,10.84-37,17-60.83,17-19,0-36.71-4.07-49.89-11.45l-27.06-15.14c.32-.2.62-.4.91-.6L422.48,431c5.63-3.91,8.59-8.82,8.32-13.82s-3.79-9.69-9.93-13.05L400.62,393c-5.88-3.22-13.72-5-22.06-5a53,53,0,0,0-23,5L250.62,445c-.69.35-1.38.71-2,1.1l-26.81-15c-13.26-7.42-20.35-17.48-20-28.32.42-12.39,10.54-24.16,27.75-32.28l118.65-56c12.22-5.77,27.39-8.95,42.72-8.95h0m0-1c-15,0-30.38,3-43.14,9l-118.65,56c-34.42,16.26-38,45.49-7.84,62.38l27.31,15.29c.78-.47,1.6-.92,2.47-1.35L356,393.93A51.92,51.92,0,0,1,378.56,389c7.9,0,15.64,1.63,21.58,4.88L420.39,405c12,6.55,12.62,17.46,1.52,25.17L333.13,491.8c-.74.51-1.52,1-2.33,1.45l28.56,16c13.89,7.77,32,11.57,50.38,11.57,22.77,0,45.85-5.86,61.42-17.24l96.65-70.63c20.76-15.18,18.94-36-4.29-48.48L432,313.62c-11.32-6.1-26-9.14-41.08-9.14Z"/><path class="cls-5" d="M378.56,389v1h0c8,0,15.51,1.69,21.1,4.75l20.25,11.09c5.5,3,8.66,7.06,8.89,11.4s-2.42,8.57-7.46,12.07L332.56,491c-.54.38-1.13.76-1.77,1.13l-80.16-44.87.88-.46,104.91-51.94A50.77,50.77,0,0,1,378.56,390v-1m0,0A52.06,52.06,0,0,0,356,393.93L251.06,445.88c-.87.43-1.69.88-2.47,1.35l82.21,46c.81-.46,1.59-.94,2.33-1.45l88.78-61.63c11.1-7.71,10.44-18.62-1.52-25.17l-20.25-11.08c-5.94-3.25-13.68-4.88-21.58-4.88Z"/><path class="cls-6" d="M524.9,401.3c-6.13-3.33-15.34-3.88-23-1.8a6.15,6.15,0,0,1-4.57-.5l-14-7.59c-3.55-1.93-7.45-3.24-10.75-5.62-4.3-3.09-4-5.3-4.06-10,0-3.25-2.22-6.21-6.12-8.32-4.63-2.51-10.19-3.2-15.38-2.9s-9.12,2.11-14-.47c-3-1.6-6-3.3-9-4.94l-14.29-7.76a6.22,6.22,0,0,1-3.18-7,7.7,7.7,0,0,0,.26-2.14c-.06-3.24-2.22-6.17-6.08-8.26-7.78-4.22-20.57-3.78-28.51,1a11.43,11.43,0,0,0-6.07,8.65c-1.17,6.41-6.45,7.78-11.58,10.21L341,360.29l-32.45,15.4c-6.76,3.21-13.78,8.18-21.64,8.48-3.85.15-7.38-1.17-11.28-.9a27.65,27.65,0,0,0-12.33,3.62c-4,2.4-6.16,5.56-6.1,8.91.06,3.19,2.16,6.1,5.91,8.19a27.18,27.18,0,0,0,12.9,2.95,29.66,29.66,0,0,0,14.79-3.67c1.79-1.07,4-2.66,5-4.55s.75-4.48,1.62-6.66c1.91-4.79,8.85-6.43,13.09-8.44l19-9,22.86-10.85c5.2-2.47,10.12-5.61,15.53-7.62,6.47-2.38,10.59-.84,17.09-.84,8.53,0,13.58-1.12,21.48,3.41,4.24,2.44,8.56,4.72,12.87,7,3.52,1.88,7.94,3.34,8.13,7.95.24,5.71.22,9.06,5.79,12.09a28.48,28.48,0,0,0,13.34,3c4.45,0,9.47-2.4,14-.71,3.4,1.28,6.78,3.74,10,5.48,4.49,2.44,9.42,4,13.64,6.94,2,1.38,4.11,3.1,5,5.42s.1,5.07.41,7.42c1,7.7-5,9.95-10.55,13.79l-24.13,16.76-14.37,10c-3.56,2.48-7.29,5.55-11.5,7.2-4.77,1.87-9.05.34-13.87,1a27.87,27.87,0,0,0-10.25,3.27c-4.12,2.38-6.37,5.54-6.35,8.91s2.17,6.19,6,8.33a28.66,28.66,0,0,0,13.6,3.1,30.78,30.78,0,0,0,14.9-3.55c3.7-2.11,6.71-5.32,6.18-9.82a22.18,22.18,0,0,1-.48-5.43c.45-3.62,5.48-5.85,8.16-7.7L460.07,450l26.69-18.55c5-3.44,10-8.07,16.33-9,7.54-1.08,14.27.44,21.38-3.63,4.31-2.47,6.65-5.73,6.61-9.2C531,406.41,528.85,403.43,524.9,401.3Z"/><path class="cls-7" d="M266.72,389.34c-5.79,3.48-5.86,8.86-.16,12s15.05,2.93,20.89-.55,5.93-8.89.18-12.06S272.53,385.85,266.72,389.34Z"/><path class="cls-7" d="M376.26,337.25c-5.8,3.49-5.87,8.86-.17,12s15.06,2.93,20.89-.55,5.93-8.9.19-12.07S382.06,333.76,376.26,337.25Z"/><path class="cls-7" d="M438,370.7c-5.79,3.48-5.86,8.86-.16,12s15.05,2.92,20.89-.56,5.93-8.89.18-12.06S443.85,367.21,438,370.7Z"/><path class="cls-7" d="M500.6,404.15c-5.8,3.48-5.87,8.86-.17,12s15.06,2.93,20.89-.55,5.93-8.89.19-12.07S506.4,400.66,500.6,404.15Z"/><path class="cls-7" d="M408.48,467.72c-5.79,3.48-5.86,8.86-.16,12s15.05,2.92,20.89-.55,5.93-8.9.18-12.07S414.29,464.23,408.48,467.72Z"/></g></svg>