<svg xmlns="http://www.w3.org/2000/svg" xmlns:xlink="http://www.w3.org/1999/xlink" viewBox="0 0 689.36 863.84"><defs><style>.cls-1{fill:#ccc;}.cls-1,.cls-10,.cls-2,.cls-3,.cls-4,.cls-5,.cls-6,.cls-7{stroke:#2e293c;stroke-width:2px;}.cls-1,.cls-10,.cls-2,.cls-3,.cls-4,.cls-6,.cls-7{stroke-miterlimit:10;}.cls-10,.cls-2{fill:none;}.cls-3{fill:#f5f6fa;}.cls-4{fill:url(#linear-gradient);}.cls-5,.cls-7{fill:#fff;}.cls-5{stroke-linejoin:round;}.cls-6{fill:url(#linear-gradient-2);}.cls-8{fill:#2e293c;}.cls-9{fill:#52de97;}.cls-10{stroke-linecap:round;}</style><linearGradient id="linear-gradient" x1="353.01" y1="331.83" x2="353.01" y2="720.83" gradientUnits="userSpaceOnUse"><stop offset="0" stop-color="#fff"/><stop offset="0.03" stop-color="#f9f9f9"/><stop offset="0.14" stop-color="#e5e5e5"/><stop offset="0.27" stop-color="#d7d7d7"/><stop offset="0.43" stop-color="#cfcfcf"/><stop offset="0.69" stop-color="#ccc"/></linearGradient><linearGradient id="linear-gradient-2" x1="296.86" y1="308.35" x2="296.86" y2="540.84" gradientTransform="translate(267.13 -88.61) rotate(30.36)" gradientUnits="userSpaceOnUse"><stop offset="0" stop-color="#fff"/><stop offset="0.33" stop-color="#fcfbfd"/><stop offset="0.62" stop-color="#f1f1f6"/><stop offset="0.9" stop-color="#e0deea"/><stop offset="1" stop-color="#d8d6e5"/></linearGradient></defs><g id="WATCH"><polygon class="cls-1" points="399.86 347.96 408.86 341.96 492.86 389.96 492.86 464.96 483.86 470.96 399.86 423.96 399.86 347.96"/><path class="cls-2" d="M455.75,302.16a45.34,45.34,0,0,1,15.93,14.15c8.63,12.12,13.18,29.19,13.18,49.37v82.65c0,54.81-33.59,118.81-74.88,142.65l-11.38,6.57c-10.65,6.15-21.09,9.27-31,9.27a41.92,41.92,0,0,1-22.84-6.61"/><path class="cls-3" d="M320.17,558.36c2,11.79,5.95,22,11.64,30,8.7,12.22,21.37,19,35.68,19,10,0,20.44-3.13,31.13-9.31L410,591.4c41.41-23.91,75.11-88.1,75.11-143.08V365.45c0-20.24-4.57-37.37-13.22-49.54a44.85,44.85,0,0,0-19.16-15.68l-70.55-39.36c16.62,8.72,27.27,30.25,27.27,61.08v85.26c0,54.81-33.64,119.08-74.75,142.81L323,556.8c-.59.34-2.56.84-3.14,1.16"/><path class="cls-3" d="M320.17,558.36c2,11.79,5.95,22,11.64,30,8.7,12.22,21.37,19,35.68,19,10,0,20.44-3.13,31.13-9.31L410,591.4c41.41-23.91,75.11-88.1,75.11-143.08V365.45c0-20.24-4.57-37.37-13.22-49.54a44.85,44.85,0,0,0-19.16-15.68l-70.55-39.36c16.62,8.72,27.27,30.25,27.27,61.08v85.26c0,54.81-33.64,119.08-74.75,142.81L323,556.8c-.59.34-2.56.84-3.14,1.16"/><path class="cls-4" d="M276.86,562l67.87,38.23a46.2,46.2,0,0,1-12.68-12.26c-8.62-12.12-13.18-29.19-13.18-49.36V455.92c0-54.82,33.59-118.81,74.89-142.65l11.37-6.57c10.66-6.15,21.09-9.27,31-9.27a42.12,42.12,0,0,1,19.6,4.73l1.36.78c.85.47.89.37.06-.15s-1.31-.83-1.31-.83l-73.65-41.09c-12.94-6.78-29.49-5.81-47.48,4.58L323,272.22c-41.11,23.74-74.75,88-74.75,142.82v85.25c0,31.63,11.2,53.48,28.58,61.74"/><path class="cls-1" d="M471.92,315.91c-8.7-12.22-21.37-19-35.68-19-10,0-20.44,3.13-31.13,9.3l-11.41,6.59c-41.41,23.91-75.11,88.09-75.11,143.08V538.8c0,20.24,4.57,37.36,13.22,49.53s21.37,19,35.68,19c10,0,20.44-3.13,31.13-9.31L410,591.4c41.41-23.91,75.11-88.1,75.11-143.08V365.45C485.14,345.21,480.57,328.08,471.92,315.91Zm6.83,132.48c0,52.28-32.08,113.57-71.29,136.2l-11.19,6.46C357.06,613.69,325,589.44,325,537.16V455.85c0-52.27,32.07-113.56,71.28-136.2l11.19-6.46c39.21-22.64,71.29,1.62,71.29,53.89Z"/><polygon class="cls-5" points="400.09 347.99 483.86 396.43 483.56 470.56 400.09 423.83 400.09 347.99"/><polygon class="cls-5" points="492.86 389.96 483.86 396.72 483.86 470.96 492.86 464.96 492.86 389.96"/><ellipse class="cls-6" cx="296.86" cy="447.96" rx="69.04" ry="119.58" transform="translate(-185.7 211.48) rotate(-30.36)"/><ellipse class="cls-7" cx="281.36" cy="458.46" rx="69.04" ry="119.58" transform="translate(-193.14 205.08) rotate(-30.36)"/><ellipse class="cls-8" cx="281.36" cy="458.46" rx="57.39" ry="99.41" transform="translate(-193.14 205.08) rotate(-30.36)"/><path class="cls-9" d="M286.82,439.81a6.91,6.91,0,0,1-9.49-2.85c-11-21.1-20.65-21.75-25.61-18.93-5.5,3.13-5.68,17.36,5.2,40.34,3.19,6.76,6.95,13.93,11.2,21.24,3.27,5.64,6.6,11,9.93,15.95a6.84,6.84,0,0,0,8.15,2.61,59.89,59.89,0,0,0,7.7-3.67,57,57,0,0,0,11.2-8.31,28,28,0,0,0,5.19-34.34C305.66,443.86,297,434.2,286.82,439.81Z"/><path class="cls-10" d="M227.53,491.71C212.78,467,203.6,438.85,203.6,413.56a80.55,80.55,0,0,1,3.35-24"/><path class="cls-10" d="M281.36,547.6a135.69,135.69,0,0,1-30.94-25.2"/><path class="cls-10" d="M345.05,546.39c-7.24,7.64-16.92,11.76-28.19,11.89"/><path class="cls-10" d="M331.88,419.85q2.64,4.11,5.06,8.36c13.72,24,22.18,50.88,22.18,75.14"/></g></svg>