<svg xmlns="http://www.w3.org/2000/svg" width="80" height="78" viewBox="0 0 80 78"><defs><style>.a{fill:#fff;}.b{fill:#52de97;}</style></defs><g transform="translate(0.147 -0.34)"><ellipse class="a" cx="40" cy="39" rx="40" ry="39" transform="translate(-0.147 0.34)"/><g transform="translate(12.283 20.409)"><path class="b" d="M44.043,25.3v0a3.051,3.051,0,0,1-1.7-.573c-9.935-5.989-21.5-6.239-32.915-3.9a10.165,10.165,0,0,1-1.9.415,2.48,2.48,0,0,1-2.517-2.517A2.521,2.521,0,0,1,7.18,16.056c13.042-2.879,26.369-2.626,37.736,4.173a2.7,2.7,0,0,1,1.547,2.626A2.408,2.408,0,0,1,44.043,25.3Z" transform="translate(-0.716 12.189)"/><path class="b" d="M49.458,23.871h0a3.945,3.945,0,0,1-1.961-.668C37.539,17.312,22.7,14.936,9.5,18.52a6.541,6.541,0,0,1-1.9.415,3.089,3.089,0,0,1-3.087-3.087,3.133,3.133,0,0,1,2.468-3.294,53.473,53.473,0,0,1,15.572-2.169c10.333,0,20.318,2.564,28.186,7.246a3.321,3.321,0,0,1,1.8,3.136A3.086,3.086,0,0,1,49.458,23.871Z" transform="translate(-1.844 3.18)"/><path class="b" d="M6.477,8.682A66.67,66.67,0,0,1,25.188,6.263c11.623,0,23.806,2.419,32.707,7.612a3.735,3.735,0,0,1,2.053,3.6,3.689,3.689,0,0,1-3.692,3.709l0,0a3.666,3.666,0,0,1-2.057-.622c-11.334-6.766-31.608-8.388-44.726-4.726a7.664,7.664,0,0,1-2.057.411,3.674,3.674,0,0,1-3.709-3.758,3.762,3.762,0,0,1,2.771-3.8Z" transform="translate(-3.706 -6.263)"/></g></g></svg>