<svg xmlns="http://www.w3.org/2000/svg" width="50" height="49.922" viewBox="0 0 50 49.922"><defs><style>.a{fill:#fff;}</style></defs><path class="a" d="M47.816,45.788H4.6a.418.418,0,0,1-.39-.39V2.106A2.05,2.05,0,0,0,2.106,0,2.006,2.006,0,0,0,0,2.106V45.4a4.647,4.647,0,0,0,4.6,4.524H47.894A2.006,2.006,0,0,0,50,47.816,2.052,2.052,0,0,0,47.816,45.788Z"/><path class="a" d="M49.134,21.3h-9.36a2.106,2.106,0,0,0,0,4.212H45l-4.992,4.134H29.4a1.846,1.846,0,0,0-1.638.858l-5.85,7.488h-9.2a2.106,2.106,0,0,0,0,4.212H22.925a1.846,1.846,0,0,0,1.638-.858l5.85-7.488H40.787a2.943,2.943,0,0,0,1.248-.39l6.006-4.992v5.382a2.106,2.106,0,1,0,4.212,0V24.5A3.251,3.251,0,0,0,49.134,21.3Z" transform="translate(-2.332 -4.685)"/></svg>