<svg xmlns="http://www.w3.org/2000/svg" width="79.995" height="79.995" viewBox="0 0 79.995 79.995"><defs><style>.a{fill:#fff;}.b{fill:#52de97;}</style></defs><g transform="translate(-1237.76)"><path class="a" d="M40,0A40,40,0,1,1,0,40,40,40,0,0,1,40,0Z" transform="translate(1237.76 0)"/><path class="b" d="M1538.327,384.416l4.828-5.253h-10.7a33.433,33.433,0,0,0-37.621,0H1484.1l4.828,5.253a14.755,14.755,0,0,0,19.969,21.726l4.731,5.146,4.727-5.143a14.757,14.757,0,1,0,19.971-21.73ZM1498.87,405.3a9.985,9.985,0,1,1,9.985-9.985A9.985,9.985,0,0,1,1498.87,405.3Zm14.758-10.272c0-6.571-4.78-12.209-11.083-14.62a28.816,28.816,0,0,1,22.163,0c-6.3,2.412-11.08,8.05-11.08,14.62Zm14.751,10.272a9.985,9.985,0,1,1,9.985-9.985A9.985,9.985,0,0,1,1528.379,405.3Zm0-15.219a5.235,5.235,0,1,0,5.235,5.235,5.235,5.235,0,0,0-5.235-5.235ZM1504.1,395.32a5.235,5.235,0,1,1-5.235-5.234,5.235,5.235,0,0,1,5.235,5.234Z" transform="translate(-235.868 -352.224)"/></g></svg>